<svg xmlns="http://www.w3.org/2000/svg" xmlns:xlink="http://www.w3.org/1999/xlink" width="1920" height="1080" viewBox="0 0 1920 1080">
  <defs>
    <clipPath id="clip-Web_1920_1">
      <rect width="1920" height="1080"/>
    </clipPath>
  </defs>
  <g id="Web_1920_1" data-name="Web 1920 – 1" clip-path="url(#clip-Web_1920_1)">
    <rect width="1920" height="1080" fill="#fff"/>
    <g id="Rectangle_2" data-name="Rectangle 2" transform="translate(-63 -21)" fill="#2c3640" stroke="#707070" stroke-width="1">
      <rect width="2080" height="1207" stroke="none"/>
      <rect x="0.5" y="0.5" width="2079" height="1206" fill="none"/>
    </g>
    <g id="Ellipse_1" data-name="Ellipse 1" transform="translate(-147 127)" fill="none" stroke="rgba(255,255,255,0.1)" stroke-width="30">
      <circle cx="165" cy="165" r="165" stroke="none"/>
      <circle cx="165" cy="165" r="150" fill="none"/>
    </g>
    <g id="Rectangle_1" data-name="Rectangle 1" transform="translate(458.71 800.086) rotate(21)" fill="none" stroke="rgba(255,250,250,0.09)" stroke-width="40">
      <rect width="368" height="332" rx="48" stroke="none"/>
      <rect x="20" y="20" width="328" height="292" rx="28" fill="none"/>
    </g>
    <g id="Ellipse_2" data-name="Ellipse 2" transform="translate(1778 11)" fill="rgba(255,255,255,0.2)" stroke="rgba(255,255,255,0.13)" stroke-width="30">
      <circle cx="107" cy="107" r="107" stroke="none"/>
      <circle cx="107" cy="107" r="92" fill="none"/>
    </g>
    <g id="Ellipse_3" data-name="Ellipse 3" transform="translate(1662 837)" fill="none" stroke="rgba(255,255,255,0.1)" stroke-width="30">
      <circle cx="165" cy="165" r="165" stroke="none"/>
      <circle cx="165" cy="165" r="150" fill="none"/>
    </g>
    <g id="Ellipse_4" data-name="Ellipse 4" transform="translate(1164 -70)" fill="none" stroke="rgba(255,255,255,0.1)" stroke-width="30">
      <circle cx="165" cy="165" r="165" stroke="none"/>
      <circle cx="165" cy="165" r="150" fill="none"/>
    </g>
    <g id="Ellipse_5" data-name="Ellipse 5" transform="translate(1307 815)" fill="none" stroke="rgba(255,255,255,0.1)" stroke-width="30">
      <circle cx="22" cy="22" r="22" stroke="none"/>
      <circle cx="22" cy="22" r="7" fill="none"/>
    </g>
    <g id="Path_1" data-name="Path 1" transform="translate(1858 407)" fill="none">
      <path d="M97,0A96.939,96.939,0,1,1,10.335,53.385,97,97,0,0,1,97,0Z" stroke="none"/>
      <path d="M 97 30 C 71.45999908447266 30 48.5308837890625 44.1070556640625 37.16011047363281 66.81688690185547 C 32.40899658203125 76.3050537109375 30 86.46011352539063 30 97 C 30 133.9439392089844 60.05606079101563 164 97 164 C 133.9439392089844 164 164 133.9439392089844 164 97 C 164 60.05606079101563 133.9439392089844 30 97 30 M 97 0 C 150.5716094970703 0 194 43.42839050292969 194 97 C 194 150.5716094970703 150.5716094970703 194 97 194 C 43.42839050292969 194 0 150.5716094970703 0 97 C 0 81.41066741943359 3.67755126953125 66.68027496337891 10.33528137207031 53.38455200195313 C 26.13421630859375 21.83061218261719 59.01771545410156 0 97 0 Z" stroke="none" fill="rgba(255,255,255,0.1)"/>
    </g>
    <g id="Path_2" data-name="Path 2" transform="translate(0 236)" fill="#fff">
      <path d="M1436,536h0Z" stroke="none"/>
      <path d="M 0 536 L 1436 536 L 0 536 Z" stroke="none" fill="#707070"/>
    </g>
  </g>
</svg>
