<svg height="100%" width="100%" id="svg" viewBox="0 0 1440 600" xmlns="http://www.w3.org/2000/svg" class="transition duration-300 ease-in-out delay-150"><path d="M 0,600 C 0,600 0,200 0,200 C 121.65550239234452,214.9665071770335 243.31100478468903,229.93301435406698 328,222 C 412.68899521531097,214.06698564593302 460.4114832535885,183.23444976076553 558,181 C 655.5885167464115,178.76555023923447 803.043062200957,205.12918660287085 911,217 C 1018.956937799043,228.87081339712915 1087.4162679425838,226.2488038277512 1169,221 C 1250.5837320574162,215.7511961722488 1345.2918660287082,207.8755980861244 1440,200 C 1440,200 1440,600 1440,600 Z" stroke="none" stroke-width="0" fill="#29323c88" class="transition-all duration-300 ease-in-out delay-150"></path><path d="M 0,600 C 0,600 0,400 0,400 C 68.61244019138758,368.5071770334928 137.22488038277515,337.0143540669856 246,339 C 354.77511961722485,340.9856459330144 503.7129186602871,376.44976076555025 602,382 C 700.2870813397129,387.55023923444975 747.9234449760766,363.1866028708134 845,346 C 942.0765550239234,328.8133971291866 1088.5933014354068,318.80382775119614 1196,329 C 1303.4066985645932,339.19617224880386 1371.7033492822966,369.5980861244019 1440,400 C 1440,400 1440,600 1440,600 Z" stroke="none" stroke-width="0" fill="#29323cff" class="transition-all duration-300 ease-in-out delay-150"></path></svg>